<svg xmlns="http://www.w3.org/2000/svg" width="700" height="200" viewBox="0 0 700 200"><style>* {
          font-family: 'Segoe UI', Ubuntu, "Helvetica Neue", Sans-Serif
        }</style><g class="gpsc-root"><rect x="1" y="1" rx="5" ry="5" height="99%" width="99.71428571428571%" stroke="#1a1b27" stroke-width="1" fill="#1a1b27" stroke-opacity="1" /><text x="30" y="40" class="gpsc-item" style="--gpsc-i: 0; font-size: 22px; fill: #70a5fd;">rootshellz</text><g transform="translate(0,40)"><g transform="translate(30,30)"><text x="21" y="14" class="gpsc-item" style="--gpsc-i: 0; fill: #38bdae; font-size: 14px;">7.29k Contributions on GitHub</text><text x="21" y="42" class="gpsc-item" style="--gpsc-i: 1; fill: #38bdae; font-size: 14px;">23 Public Repos</text><text x="21" y="70" class="gpsc-item" style="--gpsc-i: 2; fill: #38bdae; font-size: 14px;">Joined GitHub 14 years ago</text></g><g color="#bf91f3" transform="translate(295,10)"><clipPath id="gpsc-reveal-clip"><rect class="gpsc-reveal" x="-30" y="0" width="410" height="110" style="--gpsc-w: 410px; --gpsc-i: 4;" /></clipPath><g clip-path="url(#gpsc-reveal-clip)" class="gpsc-chart" style="--gpsc-i: 4;"><path transform="translate(-30,0)" stroke="#bf91f3" fill="#bf91f3" opacity="1" d="M0,109.81666666666666C9.620253164556962,106.03876549738527,19.240506329113927,102.26086432810388,28.860759493670887,97.53333333333333C38.801687763713076,92.64821797207043,48.74261603375527,86.0560321797207,58.68354430379746,80.85C68.30379746835443,75.81190434220576,77.92405063291139,66.73333333333333,87.54430379746836,66.73333333333333C97.48523206751055,66.73333333333333,107.42616033755273,69.11666666666666,117.36708860759492,73.88333333333333C127.30801687763712,78.64999999999999,137.2489451476793,107.06666666666668,147.18987341772151,107.06666666666668C156.168776371308,107.06666666666668,165.1476793248945,99.55,174.126582278481,99.55C184.0675105485232,99.55,194.0084388185654,101.70645415907711,203.94936708860757,102.66666666666667C213.56962025316454,103.5959045772372,223.18987341772151,104.56586168400024,232.81012658227849,105.23333333333333C242.75105485232066,105.9230540376442,252.69198312236287,105.94609593199758,262.63291139240505,106.7C272.253164556962,107.42958458193783,281.873417721519,109.63333333333334,291.49367088607596,109.63333333333334C301.43459915611817,109.63333333333334,311.3755274261603,101.50555555555556,321.3164556962025,85.25C331.25738396624473,68.99444444444441,341.19831223628694,7.516666666666669,351.13924050632914,7.516666666666669C360.7594936708861,7.516666666666669,370.37974683544303,58.300000000000004,380,109.08333333333334L380,110C370.37974683544303,110,360.7594936708861,110,351.13924050632914,110C341.19831223628694,110,331.25738396624473,110,321.3164556962025,110C311.3755274261603,110,301.43459915611817,110,291.49367088607596,110C281.873417721519,110,272.253164556962,110,262.63291139240505,110C252.69198312236287,110,242.75105485232066,110,232.81012658227849,110C223.18987341772151,110,213.56962025316454,110,203.94936708860757,110C194.0084388185654,110,184.0675105485232,110,174.126582278481,110C165.1476793248945,110,156.168776371308,110,147.18987341772151,110C137.2489451476793,110,127.30801687763712,110,117.36708860759492,110C107.42616033755273,110,97.48523206751055,110,87.54430379746836,110C77.92405063291139,110,68.30379746835443,110,58.68354430379746,110C48.74261603375527,110,38.801687763713076,110,28.860759493670887,110C19.240506329113927,110,9.620253164556962,110,0,110Z" /></g><g color="#38bdae" transform="translate(-30,110)" fill="none" font-size="10" font-family="sans-serif" text-anchor="middle"><path class="domain" stroke="currentColor" d="M0.5,6V0.5H380.5V6" /><g class="tick" opacity="1" transform="translate(0.5,0)"><line stroke="currentColor" y2="6" /><text fill="currentColor" y="9" dy="0.71em">25/09</text></g><g class="tick" opacity="1" transform="translate(59.18354430379746,0)"><line stroke="currentColor" y2="6" /><text fill="currentColor" y="9" dy="0.71em">25/11</text></g><g class="tick" opacity="1" transform="translate(117.86708860759492,0)"><line stroke="currentColor" y2="6" /><text fill="currentColor" y="9" dy="0.71em">26/01</text></g><g class="tick" opacity="1" transform="translate(174.626582278481,0)"><line stroke="currentColor" y2="6" /><text fill="currentColor" y="9" dy="0.71em">26/03</text></g><g class="tick" opacity="1" transform="translate(233.31012658227849,0)"><line stroke="currentColor" y2="6" /><text fill="currentColor" y="9" dy="0.71em">26/05</text></g><g class="tick" opacity="1" transform="translate(291.99367088607596,0)"><line stroke="currentColor" y2="6" /><text fill="currentColor" y="9" dy="0.71em">26/07</text></g><g class="tick" opacity="1" transform="translate(351.63924050632914,0)"><line stroke="currentColor" y2="6" /><text fill="currentColor" y="9" dy="0.71em">26/09</text></g></g><g color="#38bdae" transform="translate(350,0)" fill="none" font-size="10" font-family="sans-serif" text-anchor="start"><path class="domain" stroke="currentColor" d="M6,110.5H0.5V0.5H6" /><g class="tick" opacity="1" transform="translate(0,110.5)"><line stroke="currentColor" x2="6" /><text fill="currentColor" x="9" dy="0.32em">0</text></g><g class="tick" opacity="1" transform="translate(0,92.16666666666667)"><line stroke="currentColor" x2="6" /><text fill="currentColor" x="9" dy="0.32em">100</text></g><g class="tick" opacity="1" transform="translate(0,73.83333333333334)"><line stroke="currentColor" x2="6" /><text fill="currentColor" x="9" dy="0.32em">200</text></g><g class="tick" opacity="1" transform="translate(0,55.5)"><line stroke="currentColor" x2="6" /><text fill="currentColor" x="9" dy="0.32em">300</text></g><g class="tick" opacity="1" transform="translate(0,37.16666666666667)"><line stroke="currentColor" x2="6" /><text fill="currentColor" x="9" dy="0.32em">400</text></g><g class="tick" opacity="1" transform="translate(0,18.83333333333333)"><line stroke="currentColor" x2="6" /><text fill="currentColor" x="9" dy="0.32em">500</text></g><g class="tick" opacity="1" transform="translate(0,0.5)"><line stroke="currentColor" x2="6" /><text fill="currentColor" x="9" dy="0.32em">600</text></g></g><g><text y="-15" x="230" style="fill: #38bdae; font-size: 10px;">contributions in the last year</text></g></g></g></g></svg>
